<svg xmlns="http://www.w3.org/2000/svg" width="138" height="169.246" viewBox="0 0 138 169.246">
  <g id="Group_45317" data-name="Group 45317" transform="translate(-910 -851)">
    <g id="Component_67_17" data-name="Component 67 – 17" transform="translate(910 851)">
      <rect id="Rectangle_10426" data-name="Rectangle 10426" width="138" height="169.246" rx="15" transform="translate(138 169.246) rotate(180)" fill="#fff"/>
    </g>
    <g id="Group_45310" data-name="Group 45310" transform="translate(14)">
      <text id="المدونة" transform="translate(932 968)" fill="#1f1f1f" font-size="18" font-family="SegoeUI-Bold, Segoe UI" font-weight="700"><tspan x="5.947" y="19">المدونة</tspan></text>
      <g id="Group_45304" data-name="Group 45304" transform="translate(-0.004)">
        <circle id="Ellipse_29755" data-name="Ellipse 29755" cx="37.5" cy="37.5" r="37.5" transform="translate(935 867)" fill="#fff2b5"/>
        <g id="Page-1" transform="translate(913.537 877.907)">
          <g id="_066---Comment-Note" data-name="066---Comment-Note" transform="translate(0 0.093)">
            <path id="Shape" d="M65.339,16a1.233,1.233,0,1,0,0,2.466A6.171,6.171,0,0,1,71.5,24.63V51.751a6.171,6.171,0,0,1-6.164,6.164H46.847a3.711,3.711,0,0,0-2.959,1.479l-5.943,7.89a1.186,1.186,0,0,1-1.922,0l-5.942-7.9a3.71,3.71,0,0,0-2.959-1.47H15.1a6.171,6.171,0,0,1-6.164-6.164V24.63A6.171,6.171,0,0,1,15.1,18.466H36.984a1.233,1.233,0,0,0,0-2.466H15.1a8.641,8.641,0,0,0-8.63,8.63V51.751a8.641,8.641,0,0,0,8.63,8.63H27.122a1.222,1.222,0,0,1,.986.493l5.945,7.89a3.642,3.642,0,0,0,5.861,0l5.947-7.89a1.233,1.233,0,0,1,.986-.493H65.339a8.641,8.641,0,0,0,8.63-8.63V24.63A8.641,8.641,0,0,0,65.339,16Z" transform="translate(0 3.61)" fill="#1f1f1f"/>
            <path id="Shape-2" data-name="Shape" d="M66.691,10.211a4.931,4.931,0,0,0,0-6.973L64.947,1.491a5.046,5.046,0,0,0-6.973,0l-6.1,6.1L24.854,34.612a1.214,1.214,0,0,0-.247.354l-4.58,9.887A2.429,2.429,0,0,0,20.49,47.7a2.455,2.455,0,0,0,1.737.734,2.4,2.4,0,0,0,1.075-.256l9.909-4.59a1.218,1.218,0,0,0,.354-.247L60.59,16.316ZM59.718,3.234a2.524,2.524,0,0,1,3.486,0l1.743,1.743a2.466,2.466,0,0,1,0,3.486l-5.23,5.231L57.973,11.95l.873-.877A1.233,1.233,0,0,0,57.1,9.335l-.873.872L54.487,8.464Zm-32.987,33a1.261,1.261,0,0,1,1.6.123,1.233,1.233,0,0,1,.36.82A2.431,2.431,0,0,0,31,39.489a1.233,1.233,0,0,1,.938,1.964L27.861,43.33a7.063,7.063,0,0,0-3.022-3.017Zm-4.482,9.676,1.558-3.363a4.577,4.577,0,0,1,1.816,1.807ZM56.23,17.182a1.233,1.233,0,0,0-1.743,1.743L34.276,39.135a3.622,3.622,0,0,0-3.125-2.109,3.69,3.69,0,0,0-1.073-2.405,3.463,3.463,0,0,0-1.043-.7L49.254,13.7,51,15.438a1.233,1.233,0,0,0,1.743-1.743L51,11.95l1.744-1.739,2.612,2.612,2.612,2.612Z" transform="translate(4.6 -0.093)" fill="#1f1f1f"/>
            <path id="Shape-3" data-name="Shape" d="M54.69,6.573a1.233,1.233,0,1,0-1.743,0A1.233,1.233,0,0,0,54.69,6.573Z" transform="translate(12.242 0.926)" fill="#1f1f1f"/>
            <path id="Shape-4" data-name="Shape" d="M46.02,14.729,30.328,30.422a1.233,1.233,0,1,0,1.743,1.738L47.764,16.472a1.233,1.233,0,0,0-1.744-1.743Z" transform="translate(6.965 3.23)" fill="#1f1f1f"/>
            <path id="Shape-5" data-name="Shape" d="M6.233,21a1.233,1.233,0,1,0,0,2.466H7.466a1.233,1.233,0,1,0,0-2.466Z" transform="translate(8.164 4.774)" fill="#1f1f1f"/>
            <path id="Shape-6" data-name="Shape" d="M23.265,22.233c0-.681-.371-1.233-.829-1.233H10.829c-.458,0-.829.552-.829,1.233s.371,1.233.829,1.233H22.436C22.894,23.466,23.265,22.914,23.265,22.233Z" transform="translate(8.788 4.774)" fill="#1f1f1f"/>
            <path id="Shape-7" data-name="Shape" d="M52.233,47.466H54.7A1.233,1.233,0,1,0,54.7,45H52.233a1.233,1.233,0,0,0,0,2.466Z" transform="translate(11.873 10.362)" fill="#1f1f1f"/>
            <path id="Shape-8" data-name="Shape" d="M38.233,45a1.233,1.233,0,0,0,0,2.466H50.561a1.233,1.233,0,0,0,0-2.466Z" transform="translate(8.614 10.362)" fill="#1f1f1f"/>
          </g>
        </g>
      </g>
    </g>
  </g>
</svg>
