<svg xmlns="http://www.w3.org/2000/svg" width="138" height="169.246" viewBox="0 0 138 169.246">
  <g id="Group_45320" data-name="Group 45320" transform="translate(-1507 -851)">
    <g id="Component_67_14" data-name="Component 67 – 14" transform="translate(1507 851)">
      <rect id="Rectangle_10426" data-name="Rectangle 10426" width="138" height="169.246" rx="15" transform="translate(138 169.246) rotate(180)" fill="#fff"/>
    </g>
    <g id="Group_45301" data-name="Group 45301" transform="translate(-4)">
      <text id="الدورات" transform="translate(1545 968)" fill="#1f1f1f" font-size="18" font-family="SegoeUI-Bold, Segoe UI" font-weight="700"><tspan x="5.196" y="19">الدورات</tspan></text>
      <circle id="Ellipse_29752" data-name="Ellipse 29752" cx="37.5" cy="37.5" r="37.5" transform="translate(1554 868)" fill="#d5fbff"/>
      <path id="Union_8" data-name="Union 8" d="M20668.365,15651.25l-6.525-5.222-6.523,5.222a1.492,1.492,0,0,1-2.422-1.164v-10.437h-10.437a7.465,7.465,0,0,1-7.455-7.455v-44.736a7.469,7.469,0,0,1,7.455-7.46h20.875a1.491,1.491,0,0,1,0,2.982h-20.875a4.481,4.481,0,0,0-4.473,4.478v38.771a7.4,7.4,0,0,1,4.473-1.5h43.24v-4.473a1.493,1.493,0,0,1,2.986,0v17.892a1.5,1.5,0,0,1-1.49,1.5h-16.406v10.437a1.482,1.482,0,0,1-1.492,1.491A1.49,1.49,0,0,1,20668.365,15651.25Zm-5.59-8.3,5.029,4.026v-13.295h-11.928v13.295l5.033-4.026a1.493,1.493,0,0,1,1.865,0Zm8.012-6.291h14.91v-8.946h-43.24a4.473,4.473,0,0,0,0,8.946h10.438v-2.978h-4.473a1.494,1.494,0,0,1,0-2.987h26.838a1.494,1.494,0,0,1,0,2.987h-4.473Zm15.211-20.9a1.5,1.5,0,1,1,1.5,1.5A1.506,1.506,0,0,1,20686,15615.762Zm-10.738-2.956a4.48,4.48,0,0,1-4.473-4.473v-23.862a4.483,4.483,0,0,1,4.473-4.473h20.879a4.479,4.479,0,0,1,4.473,4.473v23.862a4.476,4.476,0,0,1-4.473,4.473Zm-1.49-28.335v23.862a1.494,1.494,0,0,0,1.49,1.49h20.879a1.494,1.494,0,0,0,1.492-1.49v-23.862a1.494,1.494,0,0,0-1.492-1.49h-20.879A1.494,1.494,0,0,0,20673.77,15584.471Zm7.822,20.739a1.49,1.49,0,0,1-.855-1.351v-14.91a1.486,1.486,0,0,1,2.441-1.148l8.951,7.455a1.509,1.509,0,0,1,.535,1.148,1.491,1.491,0,0,1-.535,1.144l-8.951,7.454a1.457,1.457,0,0,1-.951.349A1.522,1.522,0,0,1,20681.592,15605.21Zm2.125-4.535,5.129-4.271-5.129-4.275Zm-16.717-18.916a1.5,1.5,0,1,1,1.5,1.5A1.5,1.5,0,0,1,20667,15581.759Z" transform="translate(-19098 -14700.262)" fill="#1f1f1f"/>
    </g>
  </g>
</svg>
