<svg xmlns="http://www.w3.org/2000/svg" width="138" height="169.246" viewBox="0 0 138 169.246">
  <g id="Group_45319" data-name="Group 45319" transform="translate(-1306 -851)">
    <g id="Component_67_15" data-name="Component 67 – 15" transform="translate(1306 851)">
      <rect id="Rectangle_10426" data-name="Rectangle 10426" width="138" height="169.246" rx="15" transform="translate(138 169.246) rotate(180)" fill="#fff"/>
    </g>
    <g id="Group_45302" data-name="Group 45302" transform="translate(4 1)">
      <text id="المكتبة" transform="translate(1340 967)" fill="#1f1f1f" font-size="18" font-family="SegoeUI-Bold, Segoe UI" font-weight="700"><tspan x="6.45" y="19">المكتبة</tspan></text>
      <g id="Group_45306" data-name="Group 45306">
        <circle id="Ellipse_29753" data-name="Ellipse 29753" cx="37.5" cy="37.5" r="37.5" transform="translate(1347 866)" fill="#f3e3ff"/>
        <g id="book_1_" data-name="book (1)" transform="translate(1321 876)">
          <path id="Path_63744" data-name="Path 63744" d="M4.22,87.127H6.306a12.565,12.565,0,0,0,0-10.216H4.22a4.22,4.22,0,0,1,0-8.44h8.4A6.906,6.906,0,0,1,10.9,63.908V50.687a6.945,6.945,0,0,1,6.937-6.937h3.414a4.293,4.293,0,0,1,3.838-6.214h1.174a9.815,9.815,0,0,0,0-7.7H25.085a4.294,4.294,0,0,1,0-8.588H65.132a12.427,12.427,0,0,1,8.79,21.223A12.651,12.651,0,0,1,72.43,43.75h.919a4.22,4.22,0,0,1,0,8.44H71.262a12.564,12.564,0,0,0,0,10.216H73.35a4.217,4.217,0,0,1,3.47,6.618,6.948,6.948,0,0,1,4.223,6.385V88.63a6.942,6.942,0,0,1-6.932,6.937H4.22a4.22,4.22,0,0,1,0-8.44Zm0-16.282a1.846,1.846,0,0,0,0,3.691H25.645a1.187,1.187,0,1,1,0,2.374H8.854a15.4,15.4,0,0,1,.855,3.921,13.35,13.35,0,0,1-.857,6.3H72.259a.348.348,0,0,0,.343-.344V77.255a.348.348,0,0,0-.343-.343H60.5v3.9a1.681,1.681,0,0,1-.845,1.8,1.7,1.7,0,0,1-1.98-.478l-.018-.017-3.318-3.165-3.318,3.165L51,82.13a2.023,2.023,0,0,1-1.361.621,1.413,1.413,0,0,1-.625-.145,1.677,1.677,0,0,1-.839-1.8l0-3.9H31.49a1.187,1.187,0,0,1,0-2.374H48.171l0-3.691H4.22ZM67.86,56.111a15.419,15.419,0,0,1,.86-3.921H19.68a.348.348,0,0,0-.344.343v9.529a.348.348,0,0,0,.344.343H48.166l0-3.921H39.856a1.187,1.187,0,0,1,0-2.374h28ZM60.5,62.406h8.221a15.523,15.523,0,0,1-.861-3.921H60.5Zm-9.962-3.921.009,20.795,2.969-2.832a1.187,1.187,0,0,1,1.639,0l2.968,2.831,0-20.795H50.539Zm24.656-24.8A10.073,10.073,0,0,0,65.132,23.627H25.085a1.92,1.92,0,0,0,0,3.84H46.969a1.187,1.187,0,0,1,0,2.374H28.791a12.077,12.077,0,0,1,0,7.7H65.132a3.848,3.848,0,1,0,0-7.7H52.814a1.187,1.187,0,1,1,0-2.374H65.132a6.222,6.222,0,0,1,0,12.444H25.085a1.92,1.92,0,0,0,0,3.84H65.132A10.082,10.082,0,0,0,75.195,33.686ZM73.35,49.816a1.846,1.846,0,0,0,0-3.691H17.833a4.568,4.568,0,0,0-4.562,4.563V63.909a4.568,4.568,0,0,0,4.562,4.563H48.169l0-3.691H19.68a2.721,2.721,0,0,1-2.718-2.718V52.534a2.721,2.721,0,0,1,2.718-2.718H73.35Zm0,14.964H60.5v3.691h12.85a1.846,1.846,0,0,0,0-3.691ZM4.22,93.192H74.11a4.565,4.565,0,0,0,4.558-4.563V75.408a4.565,4.565,0,0,0-4.558-4.563H60.5v3.691h11.76a2.721,2.721,0,0,1,2.718,2.718v9.529A2.721,2.721,0,0,1,72.259,89.5H4.22a1.846,1.846,0,0,0,0,3.691Z" transform="translate(0 -21.253)" fill="#1f1f1f"/>
        </g>
      </g>
    </g>
  </g>
</svg>
