<svg xmlns="http://www.w3.org/2000/svg" width="138" height="169.246" viewBox="0 0 138 169.246">
  <g id="Group_45318" data-name="Group 45318" transform="translate(-1087 -850.936)">
    <g id="Component_67_16" data-name="Component 67 – 16" transform="translate(1087 850.936)">
      <rect id="Rectangle_10426" data-name="Rectangle 10426" width="138" height="169.246" rx="15" transform="translate(138 169.246) rotate(180)" fill="#fff"/>
    </g>
    <g id="Group_45303" data-name="Group 45303" transform="translate(-12)">
      <text id="بنك_الأسئلة" data-name="بنك الأسئلة" transform="translate(1118 967.936)" fill="#1f1f1f" font-size="18" font-family="SegoeUI-Bold, Segoe UI" font-weight="700"><tspan x="8.441" y="19">بنك الأسئلة</tspan></text>
      <g id="Group_45305" data-name="Group 45305" transform="translate(-5)">
        <circle id="Ellipse_29754" data-name="Ellipse 29754" cx="37.5" cy="37.5" r="37.5" transform="translate(1142 866.936)" fill="#ffd9de"/>
        <g id="communications" transform="translate(1130 877)">
          <g id="Group_45282" data-name="Group 45282" transform="translate(0 0)">
            <path id="Path_63754" data-name="Path 63754" d="M26.168,44.99h3c.209,0,.823-.111,1,0l8,5v-4a.929.929,0,0,1,1-1h4a2.087,2.087,0,0,0,2-2v-33a2.087,2.087,0,0,0-2-2h-39a2.087,2.087,0,0,0-2,2v7a.929.929,0,0,1-1,1,.929.929,0,0,1-1-1v-7a3.924,3.924,0,0,1,4-4h39a3.924,3.924,0,0,1,4,4v33a3.924,3.924,0,0,1-4,4h-3v5a1.387,1.387,0,0,1-2,1l-9-6h-3a1,1,0,0,1,0-2Z" transform="translate(28.833 -6.055)" fill="#1f1f1f"/>
            <path id="Path_63755" data-name="Path 63755" d="M297.047,232.307a6.02,6.02,0,0,0-4,6h0a4.4,4.4,0,0,0,4,4c1.773,0,2.761-1.287,3-3a12.211,12.211,0,0,0,5-4c1.306-1.848,1.163-3.732,1-6-.164-2.293-.384-4.338-2-6a9.743,9.743,0,0,0-6-3c-5.278-.521-10.269,2.762-11,8-.063.45,0,1.543,0,2a2.7,2.7,0,0,0,3,3c1.94,0,4-1.06,4-3,0-.132-.018-.871,0-1,.207-1.486,1.49-2.151,3-2,1.324.13,1.9,1.667,2,3S298.316,231.932,297.047,232.307Zm5-3c-.172-2.4-2.609-3.765-5-4-.171-.017.168,0,0,0a4.765,4.765,0,0,0-5,4c-.032.231,0,.765,0,1,0,.71-1.29,1-2,1s-1-.29-1-1a6.853,6.853,0,0,1,0-1c.565-4.049,3.915-7.4,8-7a6.835,6.835,0,0,1,7,7,7.579,7.579,0,0,1-1,5,7.674,7.674,0,0,1-4,3,1.674,1.674,0,0,0-1,1c-.023.09,0-.093,0,0h0c0,.71-.29,2-1,2a2.844,2.844,0,0,1-2-2h0c0-1.661,1.378-2.521,3-3A6.36,6.36,0,0,0,302.047,229.307Z" transform="translate(-273.047 -188.371)" fill="#1f1f1f"/>
            <path id="Path_63756" data-name="Path 63756" d="M333.191,393.349a4.4,4.4,0,0,1-4-4c0-1.94,2.06-3,4-3a2.7,2.7,0,0,1,3,3C336.191,391.288,335.131,393.349,333.191,393.349Zm0-5c-.71,0-2,.29-2,1s1.29,1,2,1,1-.29,1-1S333.9,388.349,333.191,388.349Z" transform="translate(-309.19 -329.413)" fill="#1f1f1f"/>
            <path id="Path_63757" data-name="Path 63757" d="M78.145,125.031c0,1.94-2.06,3-4,3a2.7,2.7,0,0,1-3-3c0-1.94,1.06-4,3-4A4.4,4.4,0,0,1,78.145,125.031Zm-5,0c0,.71.29,1,1,1s1-.29,1-1-.29-2-1-2S73.145,124.321,73.145,125.031Z" transform="translate(-12.144 -104.095)" fill="#1f1f1f"/>
            <path id="Path_63758" data-name="Path 63758" d="M135.406,125.031c0-1.94,1.06-4,3-4a4.4,4.4,0,0,1,4,4c0,1.94-2.06,3-4,3A2.7,2.7,0,0,1,135.406,125.031Zm3,1c.71,0,2-.29,2-1a2.844,2.844,0,0,0-2-2c-.71,0-1,1.29-1,2S137.7,126.031,138.406,126.031Z" transform="translate(-86.405 -104.095)" fill="#1f1f1f"/>
            <path id="Path_63759" data-name="Path 63759" d="M206.668,125.031a2.7,2.7,0,0,1-3,3c-1.94,0-4-1.06-4-3a4.4,4.4,0,0,1,4-4C205.608,121.031,206.668,123.092,206.668,125.031Zm-4,0c0,.71.29,1,1,1s1-.29,1-1-.29-2-1-2S202.668,124.321,202.668,125.031Z" transform="translate(-160.667 -104.095)" fill="#1f1f1f"/>
            <path id="Path_63760" data-name="Path 63760" d="M173.021,116.456h25v-11a1,1,0,0,1,2,0v11h12a3.924,3.924,0,0,1,4,4v8h3a1,1,0,0,1,0,2h-3v23a3.924,3.924,0,0,1-4,4h-17a1,1,0,0,1,0-2h17a2.087,2.087,0,0,0,2-2v-33a2.087,2.087,0,0,0-2-2h-39a2.087,2.087,0,0,0-2,2v33a2.087,2.087,0,0,0,2,2h4a.929.929,0,0,1,1,1v4l8-5c.177-.111.791,0,1,0h3a1,1,0,0,1,0,2h-3l-9,6a1.387,1.387,0,0,1-2-1v-5h-3a3.924,3.924,0,0,1-4-4v-33A3.924,3.924,0,0,1,173.021,116.456Z" transform="translate(-169.02 -89.52)" fill="#1f1f1f"/>
          </g>
        </g>
      </g>
    </g>
  </g>
</svg>
